<svg width="18" height="18" viewBox="0 0 18 18" fill="none" xmlns="http://www.w3.org/2000/svg">
<path d="M13.9384 12.1849C13.9384 12.4144 13.7523 12.6005 13.5228 12.6005C13.2934 12.6005 13.1073 12.4144 13.1073 12.1849C13.1073 12.1873 13.1073 12.1886 13.1074 12.1886C13.1084 12.1887 13.1218 12.0751 13.2932 11.8179C13.3552 11.7249 13.4314 11.6229 13.5228 11.5118C13.6143 11.6229 13.6904 11.7249 13.7524 11.8179C13.9239 12.0751 13.9373 12.1887 13.9383 12.1886C13.9384 12.1886 13.9384 12.1873 13.9384 12.1849Z" fill="#344054" stroke="#344054" stroke-width="2"/>
<path d="M7.80884 2.45474L9.05999 3.7059" stroke="#344054" stroke-width="2" stroke-linecap="round"/>
<path d="M8.80977 3.45566L3.30469 8.96077L7.3084 12.9645L12.8135 7.45936L8.80977 3.45566Z" stroke="#344054" stroke-width="2" stroke-linejoin="round"/>
<path d="M4.67578 7.61035L10.678 9.58373" stroke="#344054" stroke-width="2" stroke-linecap="round"/>
<path d="M1.84473 15.7238H16" stroke="#344054" stroke-width="1.41553" stroke-linecap="round"/>
</svg>
